# xmcd CD database file generated by Grip 3.0.1
# 
# Track frame offsets:
#       150
#       33110
#       50980
#       72219
#       99328
#       154850
#       174922
#       204950
#       220543
# 
# Disc length: 3182 seconds
# 
# Revision: 1
# Processed by: cddbd v1.4PL0 Copyright (c) Steve Scherf et al.
# Submitted via: Grip 3.0.1
# 
DISCID=6f0c6c09
DTITLE=Ogie Alcasid - OA Sa Hits Live (Disk 2)
DYEAR=2002
DGENRE=Blues
TTITLE0=Dito Sa Puso Ko
TTITLE1=Mahal Kita Walang Iba
TTITLE2=Duet with Regine Velasquez - Hanggang Ngayon
TTITLE3=Happy
TTITLE4=80's Medley
TTITLE5=Sumayaw, Sumunod
TTITLE6=Bakit Ngayon Ka Lang
TTITLE7=Nandito Ako
TTITLE8=Sa Kanya
EXTD=
EXTT0=
EXTT1=
EXTT2=
EXTT3=
EXTT4=
EXTT5=
EXTT6=
EXTT7=
EXTT8=
PLAYORDER=
